<?xml version="1.0" encoding="UTF-8"?>
<svg xmlns="http://www.w3.org/2000/svg" viewBox="0 0 64 64" role="img" aria-label="KatLearn">
  <defs>
    <linearGradient id="bg" x1="8" y1="6" x2="56" y2="58" gradientUnits="userSpaceOnUse">
      <stop stop-color="#0b5f9f"/>
      <stop offset="1" stop-color="#62c8fa"/>
    </linearGradient>
    <linearGradient id="face" x1="18" y1="16" x2="46" y2="52" gradientUnits="userSpaceOnUse">
      <stop stop-color="#ffffff"/>
      <stop offset="1" stop-color="#eaf7ff"/>
    </linearGradient>
  </defs>
  <rect width="64" height="64" rx="18" fill="url(#bg)"/>
  <path d="M15 25 14 11l11 8a20 20 0 0 1 14 0l11-8-1 14a20 20 0 1 1-34 0Z" fill="url(#face)"/>
  <path d="M22 34c2.2-3 5.2-3 7.4 0M34.6 34c2.2-3 5.2-3 7.4 0" fill="none" stroke="#176b9b" stroke-width="3.1" stroke-linecap="round"/>
  <circle cx="26.5" cy="32.5" r="1.7" fill="#176b9b"/>
  <circle cx="37.5" cy="32.5" r="1.7" fill="#176b9b"/>
  <path d="M32 38c-2.1 0-3.5 1.1-3.5 2.6S29.9 43 32 43s3.5-.9 3.5-2.4S34.1 38 32 38Z" fill="#8fcfee"/>
  <path d="M32 41c0 2.9-2.8 4.8-5.5 4.8M32 41c0 2.9 2.8 4.8 5.5 4.8" fill="none" stroke="#176b9b" stroke-width="2.2" stroke-linecap="round"/>
  <path d="M19 39 10 37M19 43l-9 2M45 39l9-2M45 43l9 2" stroke="#176b9b" stroke-width="1.8" stroke-linecap="round" opacity=".8"/>
</svg>
